HIERARCHY
ROOT Root
{
  OFFSET 20.346 11.8686 2.25538
  CHANNELS 6 Xposition Yposition Zposition Zrotation Xrotation Yrotation
  JOINT Spine
  {
    OFFSET 5.3114 0 0
    CHANNELS 3 Zrotation Xrotation Yrotation
    JOINT Spine1
    {
      OFFSET 2.79004 0 0
      CHANNELS 3 Zrotation Xrotation Yrotation
      JOINT Neck
      {
        OFFSET 1.43377 0 0
        CHANNELS 3 Zrotation Xrotation Yrotation
        JOINT Head
        {
          OFFSET 1.86043 0 0
          CHANNELS 3 Zrotation Xrotation Yrotation
          End Site
          {
            OFFSET 0 0 0
          }
        }
      }
      JOINT LeftArm
      {
        OFFSET 0.0387506 0 2.55754
        CHANNELS 3 Zrotation Xrotation Yrotation
        JOINT LeftForeArm
        {
          OFFSET 4.24845 0 0
          CHANNELS 3 Zrotation Xrotation Yrotation
          JOINT LeftHand
          {
            OFFSET 4.01008 0 0
            CHANNELS 3 Zrotation Xrotation Yrotation
            End Site
            {
              OFFSET 0 0 0
            }
          }
        }
      }
      JOINT RightArm
      {
        OFFSET 0.0387506 0 -2.55754
        CHANNELS 3 Zrotation Xrotation Yrotation
        JOINT RightForeArm
        {
          OFFSET -4.24845 0 0
          CHANNELS 3 Zrotation Xrotation Yrotation
          JOINT RightHand
          {
            OFFSET -4.01009 0 0
            CHANNELS 3 Zrotation Xrotation Yrotation
            End Site
            {
              OFFSET 0 0 0
            }
          }
        }
      }
    }
  }
  JOINT LeftUpLeg
  {
    OFFSET -1.23318 0 2.05692
    CHANNELS 3 Zrotation Xrotation Yrotation
    JOINT LeftLeg
    {
      OFFSET 5.46397 0 0
      CHANNELS 3 Zrotation Xrotation Yrotation
      JOINT LeftFoot
      {
        OFFSET 4.68898 0 0
        CHANNELS 3 Zrotation Xrotation Yrotation
        End Site
        {
          OFFSET 0 0 0
        }
      }
    }
  }
  JOINT RightUpLeg
  {
    OFFSET -1.24454 0 -2.05007
    CHANNELS 3 Zrotation Xrotation Yrotation
    JOINT RightLeg
    {
      OFFSET -5.46397 0 0
      CHANNELS 3 Zrotation Xrotation Yrotation
      JOINT RightFoot
      {
        OFFSET -4.68901 0 0
        CHANNELS 3 Zrotation Xrotation Yrotation
        End Site
        {
          OFFSET 0 0 0
        }
      }
    }
  }
}
MOTION
Frames:	14
Frame Time:	0.0416667
11.0008 11.8871 -7.89242 -0 90 90 9.69808e-018 1.34041e-020 0.158382 1.41245e-030 7.06225e-031 2.48481e-017 -7.30747e-017 7.61111e-019 -1.19349 3.40995e-017 1.65719e-019 0.556895 -2.12238e-008 -1.53545e-005 -90.1584 -2.50273e-005 -2.47192e-012 6.55612e-006 1.52588e-005 -6.98387e-015 174.455 180 -4.60993e-005 -89.8417 -5.49628e-005 -2.25992e-011 3.612e-005 1.52588e-005 6.98387e-015 174.455 -3.948 -0.248811 -175.995 -8.56345 0.175944 -0.87 4.60944 -0.077536 176.868 177.961 -0.126802 -176.037 -4.4228 0.0845968 -0.87725 2.38092 -0.033632 176.598 
10.874 11.899 -8.47699 96.0402 -10.3091 -1.5766 -5.98124 2.06087 -1.17815 5.12184 0.598462 1.03099 -18.0141 1.08373 -1.68879 35.5002 2.78182 2.74974 -0.730269 -35.9637 -178.798 27.5286 1.19726 15.9671 -1.1002 -12.3774 174.335 -175.539 -10.0945 -178.561 29.9709 1.65105 17.3509 2.15745 23.2772 174.007 -12.4359 -0.742478 179.565 -33.835 -1.01542 -1.29611 31.5842 -5.40186 179.679 162.121 -10.4301 -177.319 -31.0231 -0.690208 -1.26624 -2.76204 9.99554 177.114 
10.8808 11.8983 -8.33612 95.983 -4.9511 -1.91526 -5.45499 1.42509 -1.10433 4.62082 0.414855 0.947801 -17.1265 1.04474 -1.66646 32.7068 2.7238 2.79535 1.58282 -37.4883 -172.146 25.9555 1.16193 15.0395 -0.992714 -11.2012 174.357 -174.686 -9.72672 -171.851 29.089 1.76688 16.8017 1.7409 19.1492 174.161 -12.6659 -0.863407 179.911 -33.6172 -0.978774 -1.31172 31.3646 -5.26843 179.763 161.209 -9.37847 -177.55 -31.7968 -0.693245 -1.3009 -3.42533 8.81198 177.213 
10.8761 11.8957 -8.25592 96.1079 -6.41009 -2.15643 -5.27226 1.26942 -1.37274 4.70665 0.368771 0.965105 -17.4989 1.1133 -1.58646 32.0861 2.92536 2.88525 0.449072 -40.9179 -171.723 26.9154 1.33664 15.5816 -1.01626 -11.4583 174.352 -174.493 -10.4385 -171.355 30.4966 2.0709 17.5856 1.53652 17.0394 174.224 -12.7668 -0.306491 179.885 -34.1954 -1.01716 -1.32877 32.6287 -5.32276 179.968 158.205 -9.08477 -178.053 -36.0938 -0.793177 -1.40511 -3.15511 8.64368 177.182 
10.8583 11.8975 -8.18497 95.9873 -7.65677 -2.49106 -4.71048 0.965407 -1.48435 4.61238 0.276394 0.822022 -17.6021 1.26301 -1.42907 31.4277 3.25193 2.78137 0.0392422 -43.0545 -170.743 28.3208 1.60916 16.3718 -1.08512 -12.2081 174.336 -174.264 -11.0594 -171.212 31.7407 2.35609 18.2741 1.41711 15.7869 174.259 -12.3637 -0.210021 179.807 -34.3755 -1.05983 -1.33376 34.0725 -5.58802 -179.661 155.32 -8.84342 -178.833 -39.7875 -0.896833 -1.50343 -2.08612 8.02886 177.032 
10.8098 11.8986 -8.12269 95.8345 -8.47162 -2.87359 -4.22717 0.442402 -1.48666 4.64218 0.127778 0.791683 -17.8122 1.40766 -1.26489 31.5448 3.45249 2.24684 -0.357232 -43.94 -169.95 29.7262 1.90139 17.1574 -1.19709 -13.417 174.309 -173.878 -11.3101 -171.169 32.7352 2.59542 18.8213 1.35678 15.1485 174.276 -11.5769 -1.37945 179.444 -33.9763 -1.10616 -1.32329 35.9104 -6.18662 -178.995 152.81 -8.40824 -179.596 -41.5609 -0.957954 -1.55882 -1.58894 6.48276 176.977 
10.7352 11.8935 -8.07013 95.926 -8.72961 -3.11919 -3.91296 -0.146655 -1.63734 4.59899 -0.0396575 0.828647 -18.0556 1.54985 -1.21094 32.0075 3.67171 1.92934 -1.0981 -43.681 -169.395 30.2947 2.02567 17.4736 -1.24298 -13.9015 174.297 -173.408 -10.9852 -171.44 33.422 2.76661 19.1973 1.31187 14.6821 174.289 -10.9922 -1.84664 179.204 -33.4641 -1.12593 -1.30774 36.8873 -6.59117 -178.549 150.605 -7.59328 179.896 -40.8616 -0.985509 -1.54403 -1.36719 5.40117 176.98 
10.6334 11.8831 -8.02817 96.1876 -8.90601 -3.15956 -3.86346 -0.391839 -1.88415 4.68407 -0.106878 0.949696 -18.186 1.65673 -1.25263 32.7211 3.76074 1.55418 -2.17177 -42.5336 -169.215 30.2655 2.01939 17.4574 -1.20143 -13.4649 174.307 -172.748 -10.0982 -171.897 33.7141 2.84074 19.3568 1.28693 14.4296 174.296 -10.0272 -1.15281 179.025 -32.1923 -1.10832 -1.26783 36.8645 -6.52529 -178.564 148.531 -7.04906 179.511 -38.4042 -0.986607 -1.47309 -1.76701 4.69285 177.033 
10.5106 11.8753 -7.99066 96.4462 -8.91519 -3.29357 -3.71498 -0.605793 -1.88931 4.64755 -0.167355 0.957279 -18.133 1.81814 -1.17801 33.581 3.94788 1.06672 -2.9417 -40.9684 -168.986 30.017 1.9648 17.3192 -1.16024 -13.0199 174.318 -172.014 -8.82422 -172.542 33.2891 2.73316 19.1247 1.31058 14.667 174.292 -9.08811 -1.23766 178.809 -31.1082 -1.10455 -1.23119 37.1922 -6.77796 -178.322 147.009 -6.83983 178.941 -34.3781 -0.966344 -1.35694 -2.11782 3.60095 177.057 
10.3695 11.8915 -7.95098 96.6855 -8.76959 -3.35309 -3.49316 -0.7699 -1.88061 4.71881 -0.207036 1.09565 -18.1041 1.98755 -1.23052 34.7676 4.11773 0.668498 -3.59199 -39.2723 -168.951 29.6652 1.88872 17.1233 -1.11712 -12.5462 174.328 -171.303 -7.50314 -173.002 32.3148 2.49324 18.5901 1.35727 15.1668 174.28 -8.32541 -2.16737 178.507 -30.4244 -1.12438 -1.20866 38.3213 -6.90111 -177.988 146.076 -6.75735 178.472 -29.229 -0.907846 -1.22123 -2.63977 2.33615 177.069 
10.2131 11.8918 -7.91488 96.8716 -8.5605 -3.2756 -3.18604 -0.919213 -1.91207 4.76125 -0.247104 1.13446 -18.0523 2.1101 -1.15057 36.4168 4.18624 0.229018 -3.64369 -37.9342 -168.681 29.2987 1.81063 16.919 -1.14427 -12.8484 174.322 -170.808 -6.08028 -173.447 30.7374 2.12536 17.719 1.46415 16.2947 174.25 -7.07107 -2.39584 178.124 -29.0155 -1.12104 -1.16801 38.6091 -6.95513 -177.805 145.31 -6.57621 178.051 -24.3431 -0.847181 -1.10031 -3.81918 1.27349 177.113 
10.0447 11.8861 -7.88279 97.0085 -8.10944 -3.32299 -2.73766 -1.2632 -1.72574 4.70381 -0.341427 1.16996 -17.9486 2.20585 -0.947887 38.3673 4.16803 -0.283308 -3.09827 -36.8325 -168.38 28.9608 1.74005 16.7302 -1.21788 -13.6403 174.303 -170.265 -4.47704 -173.823 29.1698 1.78373 16.8469 1.62436 17.9552 174.199 -5.43129 -2.04304 177.937 -27.0946 -1.09089 -1.11716 37.8564 -7.0675 -177.771 144.591 -6.07411 177.53 -20.3233 -0.793116 -1.04487 -5.3733 0.318622 177.183 
9.86095 11.8737 -7.85317 97.0053 -7.56892 -3.35102 -2.18406 -1.56705 -1.48755 4.74414 -0.417886 1.351 -17.874 2.30005 -0.773551 40.4402 4.12208 -0.730996 -2.33863 -35.8266 -168.23 28.5016 1.64572 16.4732 -1.2099 -13.5549 174.306 -169.587 -2.90138 -174.007 28.1046 1.56594 16.2507 1.74507 19.1824 174.157 -3.58556 -1.70085 177.748 -25.2086 -1.05361 -1.07659 36.9924 -6.86936 -177.926 144.211 -5.41552 177.019 -17.1359 -0.755987 -1.02299 -6.81398 -0.35061 177.254 
9.66106 11.8682 -7.8243 97.0565 -6.88387 -3.13634 -1.74112 -1.82935 -1.44468 4.88173 -0.483003 1.55035 -17.9741 2.34718 -0.604708 42.5064 4.03383 -1.00807 -1.41143 -34.9407 -168.126 27.8955 1.52462 16.1332 -1.15923 -13.0106 174.319 -168.932 -1.49104 -174.17 27.4076 1.42975 15.8589 1.77703 19.501 174.146 -2.03157 -2.13367 177.304 -23.8259 -1.04233 -1.05765 36.6134 -6.76978 -177.89 144.134 -4.86864 176.778 -14.6955 -0.719287 -1.01959 -7.80093 -1.35819 177.301 
